<svg width="1072" height="134" viewBox="0 0 1072 134" fill="none" xmlns="http://www.w3.org/2000/svg">
<path d="M3.432 91.728C4.61067 91.1733 5.37333 90.4453 5.72 89.544C6.06667 88.6427 6.24 87.1867 6.24 85.176V84.136V54.6V53.56C6.24 51.4107 6.032 49.92 5.616 49.088C5.26933 48.1867 4.54133 47.4587 3.432 46.904V34.632H29.952V46.904C29.0507 47.4587 28.4613 48.048 28.184 48.672C27.9067 49.2267 27.768 50.1973 27.768 51.584V53.56V54.808V61.672H36.088V54.808V53.56V51.792C36.088 50.336 35.9493 49.296 35.672 48.672C35.3947 48.048 34.7707 47.4587 33.8 46.904V34.632H60.32V46.904C59.2107 47.4587 58.448 48.1867 58.032 49.088C57.6853 49.9893 57.512 51.4453 57.512 53.456V54.6V84.136V85.176C57.512 87.3253 57.6853 88.816 58.032 89.648C58.3787 90.48 59.1413 91.1733 60.32 91.728V104H33.8V91.728C34.7707 91.1733 35.3947 90.6187 35.672 90.064C35.9493 89.5093 36.088 88.5733 36.088 87.256V85.176V83.824V74.776H27.768V83.824V85.176V87.048C27.6987 88.4347 27.8027 89.44 28.08 90.064C28.4267 90.688 29.0507 91.2427 29.952 91.728V104H3.432V91.728ZM67.2132 91.728C68.3919 91.1733 69.1546 90.48 69.5013 89.648C69.8479 88.816 70.0213 87.3253 70.0213 85.176V84.136V54.6V53.56C70.0213 51.3413 69.8479 49.816 69.5013 48.984C69.1546 48.152 68.3919 47.4587 67.2132 46.904V34.632H94.2533V46.904C93.0746 47.4587 92.3119 48.1867 91.9653 49.088C91.6879 49.92 91.5493 51.4107 91.5493 53.56V54.6V84.136V85.176C91.5493 86.2853 91.5839 87.1867 91.6533 87.88C91.7226 88.5733 91.8613 89.1627 92.0693 89.648C92.2773 90.1333 92.5546 90.5493 92.9013 90.896C93.2479 91.1733 93.6986 91.4507 94.2533 91.728V104H67.2132V91.728ZM115.797 91.728C117.183 90.9653 118.119 90.1333 118.605 89.232C119.159 88.2613 119.437 86.8053 119.437 84.864V83.72V48.88C117.842 49.0187 116.733 49.4 116.109 50.024C115.554 50.648 115.277 51.8267 115.277 53.56V54.288V66.144H99.8847V34.632H159.685V66.144H144.293V54.288V53.56C144.293 51.8267 144.015 50.648 143.461 50.024C142.906 49.4 141.831 49.0187 140.237 48.88V83.72V84.864C140.237 86.8053 140.479 88.2613 140.965 89.232C141.45 90.1333 142.421 90.9653 143.877 91.728V104H115.797V91.728ZM206.797 91.728C208.183 90.9653 209.119 90.1333 209.605 89.232C210.159 88.2613 210.437 86.8053 210.437 84.864V83.72V48.88C208.842 49.0187 207.733 49.4 207.109 50.024C206.554 50.648 206.277 51.8267 206.277 53.56V54.288V66.144H190.885V34.632H250.685V66.144H235.293V54.288V53.56C235.293 51.8267 235.015 50.648 234.461 50.024C233.906 49.4 232.831 49.0187 231.237 48.88V83.72V84.864C231.237 86.8053 231.479 88.2613 231.965 89.232C232.45 90.1333 233.421 90.9653 234.877 91.728V104H206.797V91.728ZM256.221 91.728C257.4 91.1733 258.162 90.4453 258.509 89.544C258.856 88.6427 259.029 87.1867 259.029 85.176V84.136V54.6V53.56C259.029 51.4107 258.821 49.92 258.405 49.088C258.058 48.1867 257.33 47.4587 256.221 46.904V34.632H282.741V46.904C281.84 47.4587 281.25 48.048 280.973 48.672C280.696 49.2267 280.557 50.1973 280.557 51.584V53.56V54.808V61.672H288.877V54.808V53.56V51.792C288.877 50.336 288.738 49.296 288.461 48.672C288.184 48.048 287.56 47.4587 286.589 46.904V34.632H313.109V46.904C312 47.4587 311.237 48.1867 310.821 49.088C310.474 49.9893 310.301 51.4453 310.301 53.456V54.6V84.136V85.176C310.301 87.3253 310.474 88.816 310.821 89.648C311.168 90.48 311.93 91.1733 313.109 91.728V104H286.589V91.728C287.56 91.1733 288.184 90.6187 288.461 90.064C288.738 89.5093 288.877 88.5733 288.877 87.256V85.176V83.824V74.776H280.557V83.824V85.176V87.048C280.488 88.4347 280.592 89.44 280.869 90.064C281.216 90.688 281.84 91.2427 282.741 91.728V104H256.221V91.728ZM320.002 91.728C321.181 91.1733 321.944 90.4453 322.29 89.544C322.637 88.5733 322.81 86.7707 322.81 84.136V54.6L322.706 52.416C322.706 50.6827 322.533 49.4693 322.186 48.776C321.84 48.0827 321.112 47.4587 320.002 46.904V34.632H372.106V57.824H352.034V57.408V56.264C352.034 53.8373 351.584 52.104 350.682 51.064C349.85 50.024 348.394 49.504 346.314 49.504H345.378H344.338V61.36H358.066V74.984H344.338V89.128H344.754H345.17C346.557 89.128 347.701 89.024 348.602 88.816C349.504 88.608 350.197 88.2267 350.682 87.672C351.237 87.1173 351.584 86.3893 351.722 85.488C351.93 84.5173 352.034 83.2693 352.034 81.744V80.08V78.624H372.106V104H320.002V91.728ZM406.432 91.728C407.056 91.4507 407.541 91.1733 407.888 90.896C408.235 90.5493 408.512 90.1333 408.72 89.648C408.928 89.1627 409.067 88.5733 409.136 87.88C409.205 87.1173 409.24 86.1813 409.24 85.072V84.136V54.6V53.56C409.24 51.3413 409.067 49.816 408.72 48.984C408.373 48.152 407.611 47.4587 406.432 46.904V34.632H456.768V58.864H438.152V55.432C438.152 54.2533 438.048 53.2827 437.84 52.52C437.701 51.7573 437.389 51.168 436.904 50.752C436.419 50.2667 435.725 49.9547 434.824 49.816C433.992 49.608 432.917 49.504 431.6 49.504H430.768V62.504H444.496V76.336H430.768V84.136V85.176V86.84C430.837 88.4347 431.115 89.5787 431.6 90.272C432.155 90.9653 433.021 91.4507 434.2 91.728V104H406.432V91.728ZM462.596 91.728C463.775 91.1733 464.537 90.48 464.884 89.648C465.231 88.816 465.404 87.3253 465.404 85.176V84.136V54.6V53.56C465.404 51.3413 465.231 49.816 464.884 48.984C464.537 48.152 463.775 47.4587 462.596 46.904V34.632H492.652H495.044C498.788 34.7013 501.804 34.9787 504.092 35.464C506.449 35.88 508.495 36.6427 510.228 37.752C515.081 40.9413 517.508 46.1413 517.508 53.352C517.508 61.8107 514.041 67.1493 507.108 69.368C508.841 69.8533 510.263 70.408 511.372 71.032C512.551 71.656 513.487 72.4187 514.18 73.32C514.873 74.152 515.359 75.192 515.636 76.44C515.983 77.688 516.156 79.1787 516.156 80.912V82.888V84.552C516.156 86.9787 516.329 88.6773 516.676 89.648C517.023 90.6187 517.751 91.312 518.86 91.728V104H495.564C495.079 101.851 494.732 99.8053 494.524 97.864C494.385 95.8533 494.316 93.5307 494.316 90.896V88.296V87.36V86.528C494.316 86.1813 494.316 85.8693 494.316 85.592C494.385 85.2453 494.42 84.968 494.42 84.76C494.42 82.6107 494.177 81.016 493.692 79.976C493.276 78.8667 492.513 78.0693 491.404 77.584C490.919 77.3067 490.399 77.168 489.844 77.168C489.289 77.0987 488.319 77.064 486.932 77.064V84.136V85.176C486.932 87.3253 487.071 88.816 487.348 89.648C487.695 90.4107 488.457 91.104 489.636 91.728V104H462.596V91.728ZM486.932 63.232H488.076H489.636C491.785 63.1627 493.241 62.608 494.004 61.568C494.836 60.528 495.252 58.6907 495.252 56.056C495.252 53.2827 494.767 51.4453 493.796 50.544C492.895 49.6427 490.988 49.192 488.076 49.192H486.932V63.232ZM526.402 58.552V54.704C526.471 50.4747 527.026 47.0773 528.066 44.512C529.175 41.9467 530.978 39.7627 533.474 37.96C535.623 36.3653 538.188 35.2213 541.17 34.528C544.151 33.7653 547.86 33.384 552.298 33.384C557.151 33.384 561.138 33.8347 564.258 34.736C567.447 35.568 570.151 36.9893 572.37 39C574.38 40.8027 575.836 42.952 576.738 45.448C577.639 47.8747 578.09 50.96 578.09 54.704V58.552V80.08V83.928C578.02 88.1573 577.431 91.5547 576.322 94.12C575.282 96.6853 573.548 98.904 571.122 100.776C568.903 102.371 566.303 103.515 563.322 104.208C560.41 104.971 556.735 105.352 552.298 105.352C547.375 105.352 543.319 104.901 540.13 104C537.01 103.099 534.34 101.643 532.122 99.632C530.111 97.8987 528.655 95.784 527.754 93.288C526.852 90.792 526.402 87.672 526.402 83.928V80.08V58.552ZM556.354 57.2V55.848C556.354 54.3227 556.319 53.2133 556.25 52.52C556.18 51.8267 556.076 51.2027 555.938 50.648C555.66 49.8853 555.175 49.296 554.482 48.88C553.858 48.464 553.13 48.256 552.298 48.256C551.466 48.256 550.703 48.464 550.01 48.88C549.386 49.296 548.935 49.8853 548.658 50.648C548.45 51.2027 548.311 51.8613 548.242 52.624C548.172 53.3173 548.138 54.392 548.138 55.848V57.2V81.432V82.888C548.138 84.344 548.172 85.4187 548.242 86.112C548.311 86.8053 548.45 87.4293 548.658 87.984C548.935 88.7467 549.386 89.3707 550.01 89.856C550.703 90.272 551.466 90.48 552.298 90.48C553.13 90.48 553.858 90.272 554.482 89.856C555.175 89.3707 555.66 88.7467 555.938 87.984C556.076 87.4293 556.18 86.8053 556.25 86.112C556.319 85.4187 556.354 84.344 556.354 82.888V81.432V57.2ZM637.787 58.864H616.987V54.392C616.987 50.3013 615.635 48.256 612.931 48.256C611.683 48.256 610.677 48.7067 609.915 49.608C609.152 50.5093 608.771 51.7227 608.771 53.248V55.016V81.432V82.888C608.84 84.344 608.875 85.4187 608.875 86.112C608.944 86.8053 609.083 87.4293 609.29 87.984C609.845 89.648 611.093 90.48 613.035 90.48C614.56 90.48 615.635 89.96 616.259 88.92C616.883 87.88 617.195 86.1467 617.195 83.72V78.624H613.347V64.584H637.787V97.864C634.875 100.429 631.373 102.336 627.283 103.584C623.261 104.763 618.408 105.352 612.723 105.352C607.107 105.352 602.496 104.693 598.891 103.376C595.285 102.059 592.477 99.9787 590.467 97.136C589.427 95.7493 588.629 94.2587 588.075 92.664C587.589 91 587.277 88.9547 587.139 86.528C587.139 86.112 587.104 85.7653 587.035 85.488C587.035 85.2107 587.035 84.864 587.035 84.448C587.035 84.032 587.035 83.512 587.035 82.888C587.035 82.1947 587.035 81.2587 587.035 80.08V58.552V54.704C587.104 50.4747 587.659 47.0773 588.699 44.512C589.808 41.9467 591.611 39.7627 594.107 37.96C598.197 34.9093 604.125 33.384 611.891 33.384C617.021 33.384 621.771 34.0427 626.139 35.36C630.507 36.6773 634.389 38.6533 637.787 41.288V58.864ZM673.135 91.728C674.314 91.1733 675.076 90.48 675.423 89.648C675.77 88.816 675.943 87.3253 675.943 85.176V84.136V54.6V53.56C675.943 51.3413 675.77 49.816 675.423 48.984C675.076 48.152 674.314 47.4587 673.135 46.904V34.632H702.151H704.439C709.015 34.7013 712.586 35.1173 715.151 35.88C717.716 36.5733 719.935 37.856 721.807 39.728C725.343 43.1947 727.111 48.152 727.111 54.6V57.304V82.264V84.552C726.972 91.5547 724.823 96.72 720.663 100.048C718.86 101.435 716.711 102.44 714.215 103.064C711.788 103.688 708.53 104 704.439 104H702.151H673.135V91.728ZM698.095 88.816H699.239C700.626 88.816 701.735 88.7467 702.567 88.608C703.468 88.4 704.127 88.0187 704.543 87.464C705.028 86.9093 705.34 86.1467 705.479 85.176C705.687 84.136 705.791 82.8187 705.791 81.224V56.888V55.224C705.791 53.144 705.34 51.688 704.439 50.856C703.607 50.024 702.082 49.608 699.863 49.608H698.511H698.199H697.471V88.816H698.095ZM734.987 91.728C736.165 91.1733 736.928 90.48 737.275 89.648C737.621 88.816 737.795 87.3253 737.795 85.176V84.136V54.6V53.56C737.795 51.3413 737.621 49.816 737.275 48.984C736.928 48.152 736.165 47.4587 734.987 46.904V34.632H762.027V46.904C760.848 47.4587 760.085 48.1867 759.739 49.088C759.461 49.92 759.323 51.4107 759.323 53.56V54.6V84.136V85.176C759.323 86.2853 759.357 87.1867 759.427 87.88C759.496 88.5733 759.635 89.1627 759.843 89.648C760.051 90.1333 760.328 90.5493 760.675 90.896C761.021 91.1733 761.472 91.4507 762.027 91.728V104H734.987V91.728ZM820.386 57.824H800.21V57.096C800.21 55.9173 800.175 54.912 800.106 54.08C800.037 53.1787 799.967 52.4507 799.898 51.896C799.69 50.7867 799.205 49.8853 798.442 49.192C797.749 48.4987 796.847 48.152 795.738 48.152C794.421 48.152 793.381 48.6027 792.618 49.504C791.925 50.336 791.578 51.5493 791.578 53.144C791.578 53.976 791.682 54.704 791.89 55.328C792.098 55.952 792.479 56.5067 793.034 56.992C793.589 57.4773 794.351 57.928 795.322 58.344C796.293 58.76 797.541 59.176 799.066 59.592L805.202 61.36C808.53 62.3307 811.303 63.4053 813.522 64.584C815.741 65.6933 817.509 67.08 818.826 68.744C820.213 70.408 821.183 72.384 821.738 74.672C822.293 76.96 822.57 79.664 822.57 82.784C822.57 90.5493 820.455 96.2693 816.226 99.944C811.997 103.549 805.375 105.352 796.362 105.352C793.727 105.352 791.301 105.213 789.082 104.936C786.933 104.728 784.818 104.347 782.738 103.792C780.727 103.168 778.751 102.405 776.81 101.504C774.869 100.603 772.858 99.4587 770.778 98.072V78.624H791.786V80.496C791.786 82.2293 791.786 83.5467 791.786 84.448C791.786 85.3493 791.855 86.0773 791.994 86.632C792.202 87.672 792.687 88.5387 793.45 89.232C794.282 89.9253 795.218 90.272 796.258 90.272C797.575 90.272 798.615 89.752 799.378 88.712C800.21 87.6027 800.626 86.1813 800.626 84.448C800.626 82.368 800.071 80.704 798.962 79.456C798.615 79.04 798.269 78.728 797.922 78.52C797.645 78.2427 797.194 78 796.57 77.792C796.015 77.5147 795.218 77.2373 794.178 76.96C793.207 76.6827 791.855 76.3013 790.122 75.816C787.903 75.192 785.997 74.6373 784.402 74.152C782.877 73.6667 781.525 73.216 780.346 72.8C779.237 72.3147 778.266 71.8293 777.434 71.344C776.671 70.8587 775.943 70.3387 775.25 69.784C773.309 68.12 771.887 66.0747 770.986 63.648C770.154 61.2213 769.738 58.2053 769.738 54.6C769.738 46.7653 771.783 41.3227 775.874 38.272C780.45 34.8747 786.863 33.176 795.114 33.176C799.898 33.176 804.266 33.7653 808.218 34.944C812.239 36.0533 816.295 37.9253 820.386 40.56V57.824ZM881.735 60.32H860.623V53.248C860.623 51.6533 860.276 50.44 859.583 49.608C858.959 48.7067 858.023 48.256 856.775 48.256C856.081 48.256 855.457 48.464 854.903 48.88C854.348 49.2267 853.932 49.6773 853.655 50.232C853.377 50.7867 853.169 51.4107 853.031 52.104C852.961 52.7973 852.927 53.9067 852.927 55.432V56.888V81.12V82.472C852.996 85.4533 853.308 87.4987 853.863 88.608C854.417 89.648 855.457 90.168 856.983 90.168C858.439 90.168 859.409 89.7173 859.895 88.816C860.38 87.9147 860.623 86.1813 860.623 83.616V74.984H881.735V98.072C879.863 99.3893 877.991 100.533 876.119 101.504C874.247 102.405 872.305 103.133 870.295 103.688C868.353 104.243 866.273 104.659 864.055 104.936C861.836 105.213 859.375 105.352 856.671 105.352C847.865 105.352 841.417 103.653 837.327 100.256C833.236 96.7893 831.191 91.3467 831.191 83.928V80.08V58.552V54.704C831.26 50.4747 831.815 47.0773 832.855 44.512C833.964 41.9467 835.767 39.7627 838.263 37.96C842.215 34.9093 848.212 33.384 856.255 33.384C861.316 33.384 865.927 34.008 870.087 35.256C874.316 36.4347 878.199 38.3413 881.735 40.976V60.32ZM890.402 58.552V54.704C890.471 50.4747 891.026 47.0773 892.066 44.512C893.175 41.9467 894.978 39.7627 897.474 37.96C899.623 36.3653 902.188 35.2213 905.17 34.528C908.151 33.7653 911.86 33.384 916.298 33.384C921.151 33.384 925.138 33.8347 928.258 34.736C931.447 35.568 934.151 36.9893 936.37 39C938.38 40.8027 939.836 42.952 940.738 45.448C941.639 47.8747 942.09 50.96 942.09 54.704V58.552V80.08V83.928C942.02 88.1573 941.431 91.5547 940.322 94.12C939.282 96.6853 937.548 98.904 935.122 100.776C932.903 102.371 930.303 103.515 927.322 104.208C924.41 104.971 920.735 105.352 916.298 105.352C911.375 105.352 907.319 104.901 904.13 104C901.01 103.099 898.34 101.643 896.122 99.632C894.111 97.8987 892.655 95.784 891.754 93.288C890.852 90.792 890.402 87.672 890.402 83.928V80.08V58.552ZM920.354 57.2V55.848C920.354 54.3227 920.319 53.2133 920.25 52.52C920.18 51.8267 920.076 51.2027 919.938 50.648C919.66 49.8853 919.175 49.296 918.482 48.88C917.858 48.464 917.13 48.256 916.298 48.256C915.466 48.256 914.703 48.464 914.01 48.88C913.386 49.296 912.935 49.8853 912.658 50.648C912.45 51.2027 912.311 51.8613 912.242 52.624C912.172 53.3173 912.138 54.392 912.138 55.848V57.2V81.432V82.888C912.138 84.344 912.172 85.4187 912.242 86.112C912.311 86.8053 912.45 87.4293 912.658 87.984C912.935 88.7467 913.386 89.3707 914.01 89.856C914.703 90.272 915.466 90.48 916.298 90.48C917.13 90.48 917.858 90.272 918.482 89.856C919.175 89.3707 919.66 88.7467 919.938 87.984C920.076 87.4293 920.18 86.8053 920.25 86.112C920.319 85.4187 920.354 84.344 920.354 82.888V81.432V57.2ZM949.994 91.728C951.173 91.1733 951.936 90.48 952.283 89.648C952.629 88.816 952.803 87.3253 952.803 85.176V84.136V54.6V53.56C952.803 51.3413 952.629 49.816 952.283 48.984C951.936 48.152 951.173 47.4587 949.994 46.904V34.632H980.051H982.443C986.187 34.7013 989.203 34.9787 991.491 35.464C993.848 35.88 995.893 36.6427 997.627 37.752C1002.48 40.9413 1004.91 46.1413 1004.91 53.352C1004.91 61.8107 1001.44 67.1493 994.507 69.368C996.24 69.8533 997.661 70.408 998.771 71.032C999.949 71.656 1000.89 72.4187 1001.58 73.32C1002.27 74.152 1002.76 75.192 1003.03 76.44C1003.38 77.688 1003.55 79.1787 1003.55 80.912V82.888V84.552C1003.55 86.9787 1003.73 88.6773 1004.07 89.648C1004.42 90.6187 1005.15 91.312 1006.26 91.728V104H982.963C982.477 101.851 982.131 99.8053 981.923 97.864C981.784 95.8533 981.715 93.5307 981.715 90.896V88.296V87.36V86.528C981.715 86.1813 981.715 85.8693 981.715 85.592C981.784 85.2453 981.819 84.968 981.819 84.76C981.819 82.6107 981.576 81.016 981.091 79.976C980.675 78.8667 979.912 78.0693 978.803 77.584C978.317 77.3067 977.797 77.168 977.243 77.168C976.688 77.0987 975.717 77.064 974.331 77.064V84.136V85.176C974.331 87.3253 974.469 88.816 974.747 89.648C975.093 90.4107 975.856 91.104 977.035 91.728V104H949.994V91.728ZM974.331 63.232H975.475H977.035C979.184 63.1627 980.64 62.608 981.403 61.568C982.235 60.528 982.651 58.6907 982.651 56.056C982.651 53.2827 982.165 51.4453 981.195 50.544C980.293 49.6427 978.387 49.192 975.475 49.192H974.331V63.232ZM1012.76 91.728C1013.94 91.1733 1014.7 90.48 1015.05 89.648C1015.39 88.816 1015.57 87.3253 1015.57 85.176V84.136V54.6V53.56C1015.57 51.3413 1015.39 49.816 1015.05 48.984C1014.7 48.152 1013.94 47.4587 1012.76 46.904V34.632H1041.78H1044.06C1048.64 34.7013 1052.21 35.1173 1054.78 35.88C1057.34 36.5733 1059.56 37.856 1061.43 39.728C1064.97 43.1947 1066.74 48.152 1066.74 54.6V57.304V82.264V84.552C1066.6 91.5547 1064.45 96.72 1060.29 100.048C1058.49 101.435 1056.34 102.44 1053.84 103.064C1051.41 103.688 1048.15 104 1044.06 104H1041.78H1012.76V91.728ZM1037.72 88.816H1038.86C1040.25 88.816 1041.36 88.7467 1042.19 88.608C1043.09 88.4 1043.75 88.0187 1044.17 87.464C1044.65 86.9093 1044.97 86.1467 1045.1 85.176C1045.31 84.136 1045.42 82.8187 1045.42 81.224V56.888V55.224C1045.42 53.144 1044.97 51.688 1044.06 50.856C1043.23 50.024 1041.71 49.608 1039.49 49.608H1038.14H1037.82H1037.1V88.816H1037.72Z" fill="#D42D1F"/>
<path d="M3.432 79.728C4.61067 79.1733 5.37333 78.4453 5.72 77.544C6.06667 76.6427 6.24 75.1867 6.24 73.176V72.136V42.6V41.56C6.24 39.4107 6.032 37.92 5.616 37.088C5.26933 36.1867 4.54133 35.4587 3.432 34.904V22.632H29.952V34.904C29.0507 35.4587 28.4613 36.048 28.184 36.672C27.9067 37.2267 27.768 38.1973 27.768 39.584V41.56V42.808V49.672H36.088V42.808V41.56V39.792C36.088 38.336 35.9493 37.296 35.672 36.672C35.3947 36.048 34.7707 35.4587 33.8 34.904V22.632H60.32V34.904C59.2107 35.4587 58.448 36.1867 58.032 37.088C57.6853 37.9893 57.512 39.4453 57.512 41.456V42.6V72.136V73.176C57.512 75.3253 57.6853 76.816 58.032 77.648C58.3787 78.48 59.1413 79.1733 60.32 79.728V92H33.8V79.728C34.7707 79.1733 35.3947 78.6187 35.672 78.064C35.9493 77.5093 36.088 76.5733 36.088 75.256V73.176V71.824V62.776H27.768V71.824V73.176V75.048C27.6987 76.4347 27.8027 77.44 28.08 78.064C28.4267 78.688 29.0507 79.2427 29.952 79.728V92H3.432V79.728ZM67.2132 79.728C68.3919 79.1733 69.1546 78.48 69.5013 77.648C69.8479 76.816 70.0213 75.3253 70.0213 73.176V72.136V42.6V41.56C70.0213 39.3413 69.8479 37.816 69.5013 36.984C69.1546 36.152 68.3919 35.4587 67.2132 34.904V22.632H94.2533V34.904C93.0746 35.4587 92.3119 36.1867 91.9653 37.088C91.6879 37.92 91.5493 39.4107 91.5493 41.56V42.6V72.136V73.176C91.5493 74.2853 91.5839 75.1867 91.6533 75.88C91.7226 76.5733 91.8613 77.1627 92.0693 77.648C92.2773 78.1333 92.5546 78.5493 92.9013 78.896C93.2479 79.1733 93.6986 79.4507 94.2533 79.728V92H67.2132V79.728ZM115.797 79.728C117.183 78.9653 118.119 78.1333 118.605 77.232C119.159 76.2613 119.437 74.8053 119.437 72.864V71.72V36.88C117.842 37.0187 116.733 37.4 116.109 38.024C115.554 38.648 115.277 39.8267 115.277 41.56V42.288V54.144H99.8847V22.632H159.685V54.144H144.293V42.288V41.56C144.293 39.8267 144.015 38.648 143.461 38.024C142.906 37.4 141.831 37.0187 140.237 36.88V71.72V72.864C140.237 74.8053 140.479 76.2613 140.965 77.232C141.45 78.1333 142.421 78.9653 143.877 79.728V92H115.797V79.728ZM206.797 79.728C208.183 78.9653 209.119 78.1333 209.605 77.232C210.159 76.2613 210.437 74.8053 210.437 72.864V71.72V36.88C208.842 37.0187 207.733 37.4 207.109 38.024C206.554 38.648 206.277 39.8267 206.277 41.56V42.288V54.144H190.885V22.632H250.685V54.144H235.293V42.288V41.56C235.293 39.8267 235.015 38.648 234.461 38.024C233.906 37.4 232.831 37.0187 231.237 36.88V71.72V72.864C231.237 74.8053 231.479 76.2613 231.965 77.232C232.45 78.1333 233.421 78.9653 234.877 79.728V92H206.797V79.728ZM256.221 79.728C257.4 79.1733 258.162 78.4453 258.509 77.544C258.856 76.6427 259.029 75.1867 259.029 73.176V72.136V42.6V41.56C259.029 39.4107 258.821 37.92 258.405 37.088C258.058 36.1867 257.33 35.4587 256.221 34.904V22.632H282.741V34.904C281.84 35.4587 281.25 36.048 280.973 36.672C280.696 37.2267 280.557 38.1973 280.557 39.584V41.56V42.808V49.672H288.877V42.808V41.56V39.792C288.877 38.336 288.738 37.296 288.461 36.672C288.184 36.048 287.56 35.4587 286.589 34.904V22.632H313.109V34.904C312 35.4587 311.237 36.1867 310.821 37.088C310.474 37.9893 310.301 39.4453 310.301 41.456V42.6V72.136V73.176C310.301 75.3253 310.474 76.816 310.821 77.648C311.168 78.48 311.93 79.1733 313.109 79.728V92H286.589V79.728C287.56 79.1733 288.184 78.6187 288.461 78.064C288.738 77.5093 288.877 76.5733 288.877 75.256V73.176V71.824V62.776H280.557V71.824V73.176V75.048C280.488 76.4347 280.592 77.44 280.869 78.064C281.216 78.688 281.84 79.2427 282.741 79.728V92H256.221V79.728ZM320.002 79.728C321.181 79.1733 321.944 78.4453 322.29 77.544C322.637 76.5733 322.81 74.7707 322.81 72.136V42.6L322.706 40.416C322.706 38.6827 322.533 37.4693 322.186 36.776C321.84 36.0827 321.112 35.4587 320.002 34.904V22.632H372.106V45.824H352.034V45.408V44.264C352.034 41.8373 351.584 40.104 350.682 39.064C349.85 38.024 348.394 37.504 346.314 37.504H345.378H344.338V49.36H358.066V62.984H344.338V77.128H344.754H345.17C346.557 77.128 347.701 77.024 348.602 76.816C349.504 76.608 350.197 76.2267 350.682 75.672C351.237 75.1173 351.584 74.3893 351.722 73.488C351.93 72.5173 352.034 71.2693 352.034 69.744V68.08V66.624H372.106V92H320.002V79.728ZM406.432 79.728C407.056 79.4507 407.541 79.1733 407.888 78.896C408.235 78.5493 408.512 78.1333 408.72 77.648C408.928 77.1627 409.067 76.5733 409.136 75.88C409.205 75.1173 409.24 74.1813 409.24 73.072V72.136V42.6V41.56C409.24 39.3413 409.067 37.816 408.72 36.984C408.373 36.152 407.611 35.4587 406.432 34.904V22.632H456.768V46.864H438.152V43.432C438.152 42.2533 438.048 41.2827 437.84 40.52C437.701 39.7573 437.389 39.168 436.904 38.752C436.419 38.2667 435.725 37.9547 434.824 37.816C433.992 37.608 432.917 37.504 431.6 37.504H430.768V50.504H444.496V64.336H430.768V72.136V73.176V74.84C430.837 76.4347 431.115 77.5787 431.6 78.272C432.155 78.9653 433.021 79.4507 434.2 79.728V92H406.432V79.728ZM462.596 79.728C463.775 79.1733 464.537 78.48 464.884 77.648C465.231 76.816 465.404 75.3253 465.404 73.176V72.136V42.6V41.56C465.404 39.3413 465.231 37.816 464.884 36.984C464.537 36.152 463.775 35.4587 462.596 34.904V22.632H492.652H495.044C498.788 22.7013 501.804 22.9787 504.092 23.464C506.449 23.88 508.495 24.6427 510.228 25.752C515.081 28.9413 517.508 34.1413 517.508 41.352C517.508 49.8107 514.041 55.1493 507.108 57.368C508.841 57.8533 510.263 58.408 511.372 59.032C512.551 59.656 513.487 60.4187 514.18 61.32C514.873 62.152 515.359 63.192 515.636 64.44C515.983 65.688 516.156 67.1787 516.156 68.912V70.888V72.552C516.156 74.9787 516.329 76.6773 516.676 77.648C517.023 78.6187 517.751 79.312 518.86 79.728V92H495.564C495.079 89.8507 494.732 87.8053 494.524 85.864C494.385 83.8533 494.316 81.5307 494.316 78.896V76.296V75.36V74.528C494.316 74.1813 494.316 73.8693 494.316 73.592C494.385 73.2453 494.42 72.968 494.42 72.76C494.42 70.6107 494.177 69.016 493.692 67.976C493.276 66.8667 492.513 66.0693 491.404 65.584C490.919 65.3067 490.399 65.168 489.844 65.168C489.289 65.0987 488.319 65.064 486.932 65.064V72.136V73.176C486.932 75.3253 487.071 76.816 487.348 77.648C487.695 78.4107 488.457 79.104 489.636 79.728V92H462.596V79.728ZM486.932 51.232H488.076H489.636C491.785 51.1627 493.241 50.608 494.004 49.568C494.836 48.528 495.252 46.6907 495.252 44.056C495.252 41.2827 494.767 39.4453 493.796 38.544C492.895 37.6427 490.988 37.192 488.076 37.192H486.932V51.232ZM526.402 46.552V42.704C526.471 38.4747 527.026 35.0773 528.066 32.512C529.175 29.9467 530.978 27.7627 533.474 25.96C535.623 24.3653 538.188 23.2213 541.17 22.528C544.151 21.7653 547.86 21.384 552.298 21.384C557.151 21.384 561.138 21.8347 564.258 22.736C567.447 23.568 570.151 24.9893 572.37 27C574.38 28.8027 575.836 30.952 576.738 33.448C577.639 35.8747 578.09 38.96 578.09 42.704V46.552V68.08V71.928C578.02 76.1573 577.431 79.5547 576.322 82.12C575.282 84.6853 573.548 86.904 571.122 88.776C568.903 90.3707 566.303 91.5147 563.322 92.208C560.41 92.9707 556.735 93.352 552.298 93.352C547.375 93.352 543.319 92.9013 540.13 92C537.01 91.0987 534.34 89.6427 532.122 87.632C530.111 85.8987 528.655 83.784 527.754 81.288C526.852 78.792 526.402 75.672 526.402 71.928V68.08V46.552ZM556.354 45.2V43.848C556.354 42.3227 556.319 41.2133 556.25 40.52C556.18 39.8267 556.076 39.2027 555.938 38.648C555.66 37.8853 555.175 37.296 554.482 36.88C553.858 36.464 553.13 36.256 552.298 36.256C551.466 36.256 550.703 36.464 550.01 36.88C549.386 37.296 548.935 37.8853 548.658 38.648C548.45 39.2027 548.311 39.8613 548.242 40.624C548.172 41.3173 548.138 42.392 548.138 43.848V45.2V69.432V70.888C548.138 72.344 548.172 73.4187 548.242 74.112C548.311 74.8053 548.45 75.4293 548.658 75.984C548.935 76.7467 549.386 77.3707 550.01 77.856C550.703 78.272 551.466 78.48 552.298 78.48C553.13 78.48 553.858 78.272 554.482 77.856C555.175 77.3707 555.66 76.7467 555.938 75.984C556.076 75.4293 556.18 74.8053 556.25 74.112C556.319 73.4187 556.354 72.344 556.354 70.888V69.432V45.2ZM637.787 46.864H616.987V42.392C616.987 38.3013 615.635 36.256 612.931 36.256C611.683 36.256 610.677 36.7067 609.915 37.608C609.152 38.5093 608.771 39.7227 608.771 41.248V43.016V69.432V70.888C608.84 72.344 608.875 73.4187 608.875 74.112C608.944 74.8053 609.083 75.4293 609.29 75.984C609.845 77.648 611.093 78.48 613.035 78.48C614.56 78.48 615.635 77.96 616.259 76.92C616.883 75.88 617.195 74.1467 617.195 71.72V66.624H613.347V52.584H637.787V85.864C634.875 88.4293 631.373 90.336 627.283 91.584C623.261 92.7627 618.408 93.352 612.723 93.352C607.107 93.352 602.496 92.6933 598.891 91.376C595.285 90.0587 592.477 87.9787 590.467 85.136C589.427 83.7493 588.629 82.2587 588.075 80.664C587.589 79 587.277 76.9547 587.139 74.528C587.139 74.112 587.104 73.7653 587.035 73.488C587.035 73.2107 587.035 72.864 587.035 72.448C587.035 72.032 587.035 71.512 587.035 70.888C587.035 70.1947 587.035 69.2587 587.035 68.08V46.552V42.704C587.104 38.4747 587.659 35.0773 588.699 32.512C589.808 29.9467 591.611 27.7627 594.107 25.96C598.197 22.9093 604.125 21.384 611.891 21.384C617.021 21.384 621.771 22.0427 626.139 23.36C630.507 24.6773 634.389 26.6533 637.787 29.288V46.864ZM673.135 79.728C674.314 79.1733 675.076 78.48 675.423 77.648C675.77 76.816 675.943 75.3253 675.943 73.176V72.136V42.6V41.56C675.943 39.3413 675.77 37.816 675.423 36.984C675.076 36.152 674.314 35.4587 673.135 34.904V22.632H702.151H704.439C709.015 22.7013 712.586 23.1173 715.151 23.88C717.716 24.5733 719.935 25.856 721.807 27.728C725.343 31.1947 727.111 36.152 727.111 42.6V45.304V70.264V72.552C726.972 79.5547 724.823 84.72 720.663 88.048C718.86 89.4347 716.711 90.44 714.215 91.064C711.788 91.688 708.53 92 704.439 92H702.151H673.135V79.728ZM698.095 76.816H699.239C700.626 76.816 701.735 76.7467 702.567 76.608C703.468 76.4 704.127 76.0187 704.543 75.464C705.028 74.9093 705.34 74.1467 705.479 73.176C705.687 72.136 705.791 70.8187 705.791 69.224V44.888V43.224C705.791 41.144 705.34 39.688 704.439 38.856C703.607 38.024 702.082 37.608 699.863 37.608H698.511H698.199H697.471V76.816H698.095ZM734.987 79.728C736.165 79.1733 736.928 78.48 737.275 77.648C737.621 76.816 737.795 75.3253 737.795 73.176V72.136V42.6V41.56C737.795 39.3413 737.621 37.816 737.275 36.984C736.928 36.152 736.165 35.4587 734.987 34.904V22.632H762.027V34.904C760.848 35.4587 760.085 36.1867 759.739 37.088C759.461 37.92 759.323 39.4107 759.323 41.56V42.6V72.136V73.176C759.323 74.2853 759.357 75.1867 759.427 75.88C759.496 76.5733 759.635 77.1627 759.843 77.648C760.051 78.1333 760.328 78.5493 760.675 78.896C761.021 79.1733 761.472 79.4507 762.027 79.728V92H734.987V79.728ZM820.386 45.824H800.21V45.096C800.21 43.9173 800.175 42.912 800.106 42.08C800.037 41.1787 799.967 40.4507 799.898 39.896C799.69 38.7867 799.205 37.8853 798.442 37.192C797.749 36.4987 796.847 36.152 795.738 36.152C794.421 36.152 793.381 36.6027 792.618 37.504C791.925 38.336 791.578 39.5493 791.578 41.144C791.578 41.976 791.682 42.704 791.89 43.328C792.098 43.952 792.479 44.5067 793.034 44.992C793.589 45.4773 794.351 45.928 795.322 46.344C796.293 46.76 797.541 47.176 799.066 47.592L805.202 49.36C808.53 50.3307 811.303 51.4053 813.522 52.584C815.741 53.6933 817.509 55.08 818.826 56.744C820.213 58.408 821.183 60.384 821.738 62.672C822.293 64.96 822.57 67.664 822.57 70.784C822.57 78.5493 820.455 84.2693 816.226 87.944C811.997 91.5493 805.375 93.352 796.362 93.352C793.727 93.352 791.301 93.2133 789.082 92.936C786.933 92.728 784.818 92.3467 782.738 91.792C780.727 91.168 778.751 90.4053 776.81 89.504C774.869 88.6027 772.858 87.4587 770.778 86.072V66.624H791.786V68.496C791.786 70.2293 791.786 71.5467 791.786 72.448C791.786 73.3493 791.855 74.0773 791.994 74.632C792.202 75.672 792.687 76.5387 793.45 77.232C794.282 77.9253 795.218 78.272 796.258 78.272C797.575 78.272 798.615 77.752 799.378 76.712C800.21 75.6027 800.626 74.1813 800.626 72.448C800.626 70.368 800.071 68.704 798.962 67.456C798.615 67.04 798.269 66.728 797.922 66.52C797.645 66.2427 797.194 66 796.57 65.792C796.015 65.5147 795.218 65.2373 794.178 64.96C793.207 64.6827 791.855 64.3013 790.122 63.816C787.903 63.192 785.997 62.6373 784.402 62.152C782.877 61.6667 781.525 61.216 780.346 60.8C779.237 60.3147 778.266 59.8293 777.434 59.344C776.671 58.8587 775.943 58.3387 775.25 57.784C773.309 56.12 771.887 54.0747 770.986 51.648C770.154 49.2213 769.738 46.2053 769.738 42.6C769.738 34.7653 771.783 29.3227 775.874 26.272C780.45 22.8747 786.863 21.176 795.114 21.176C799.898 21.176 804.266 21.7653 808.218 22.944C812.239 24.0533 816.295 25.9253 820.386 28.56V45.824ZM881.735 48.32H860.623V41.248C860.623 39.6533 860.276 38.44 859.583 37.608C858.959 36.7067 858.023 36.256 856.775 36.256C856.081 36.256 855.457 36.464 854.903 36.88C854.348 37.2267 853.932 37.6773 853.655 38.232C853.377 38.7867 853.169 39.4107 853.031 40.104C852.961 40.7973 852.927 41.9067 852.927 43.432V44.888V69.12V70.472C852.996 73.4533 853.308 75.4987 853.863 76.608C854.417 77.648 855.457 78.168 856.983 78.168C858.439 78.168 859.409 77.7173 859.895 76.816C860.38 75.9147 860.623 74.1813 860.623 71.616V62.984H881.735V86.072C879.863 87.3893 877.991 88.5333 876.119 89.504C874.247 90.4053 872.305 91.1333 870.295 91.688C868.353 92.2427 866.273 92.6587 864.055 92.936C861.836 93.2133 859.375 93.352 856.671 93.352C847.865 93.352 841.417 91.6533 837.327 88.256C833.236 84.7893 831.191 79.3467 831.191 71.928V68.08V46.552V42.704C831.26 38.4747 831.815 35.0773 832.855 32.512C833.964 29.9467 835.767 27.7627 838.263 25.96C842.215 22.9093 848.212 21.384 856.255 21.384C861.316 21.384 865.927 22.008 870.087 23.256C874.316 24.4347 878.199 26.3413 881.735 28.976V48.32ZM890.402 46.552V42.704C890.471 38.4747 891.026 35.0773 892.066 32.512C893.175 29.9467 894.978 27.7627 897.474 25.96C899.623 24.3653 902.188 23.2213 905.17 22.528C908.151 21.7653 911.86 21.384 916.298 21.384C921.151 21.384 925.138 21.8347 928.258 22.736C931.447 23.568 934.151 24.9893 936.37 27C938.38 28.8027 939.836 30.952 940.738 33.448C941.639 35.8747 942.09 38.96 942.09 42.704V46.552V68.08V71.928C942.02 76.1573 941.431 79.5547 940.322 82.12C939.282 84.6853 937.548 86.904 935.122 88.776C932.903 90.3707 930.303 91.5147 927.322 92.208C924.41 92.9707 920.735 93.352 916.298 93.352C911.375 93.352 907.319 92.9013 904.13 92C901.01 91.0987 898.34 89.6427 896.122 87.632C894.111 85.8987 892.655 83.784 891.754 81.288C890.852 78.792 890.402 75.672 890.402 71.928V68.08V46.552ZM920.354 45.2V43.848C920.354 42.3227 920.319 41.2133 920.25 40.52C920.18 39.8267 920.076 39.2027 919.938 38.648C919.66 37.8853 919.175 37.296 918.482 36.88C917.858 36.464 917.13 36.256 916.298 36.256C915.466 36.256 914.703 36.464 914.01 36.88C913.386 37.296 912.935 37.8853 912.658 38.648C912.45 39.2027 912.311 39.8613 912.242 40.624C912.172 41.3173 912.138 42.392 912.138 43.848V45.2V69.432V70.888C912.138 72.344 912.172 73.4187 912.242 74.112C912.311 74.8053 912.45 75.4293 912.658 75.984C912.935 76.7467 913.386 77.3707 914.01 77.856C914.703 78.272 915.466 78.48 916.298 78.48C917.13 78.48 917.858 78.272 918.482 77.856C919.175 77.3707 919.66 76.7467 919.938 75.984C920.076 75.4293 920.18 74.8053 920.25 74.112C920.319 73.4187 920.354 72.344 920.354 70.888V69.432V45.2ZM949.994 79.728C951.173 79.1733 951.936 78.48 952.283 77.648C952.629 76.816 952.803 75.3253 952.803 73.176V72.136V42.6V41.56C952.803 39.3413 952.629 37.816 952.283 36.984C951.936 36.152 951.173 35.4587 949.994 34.904V22.632H980.051H982.443C986.187 22.7013 989.203 22.9787 991.491 23.464C993.848 23.88 995.893 24.6427 997.627 25.752C1002.48 28.9413 1004.91 34.1413 1004.91 41.352C1004.91 49.8107 1001.44 55.1493 994.507 57.368C996.24 57.8533 997.661 58.408 998.771 59.032C999.949 59.656 1000.89 60.4187 1001.58 61.32C1002.27 62.152 1002.76 63.192 1003.03 64.44C1003.38 65.688 1003.55 67.1787 1003.55 68.912V70.888V72.552C1003.55 74.9787 1003.73 76.6773 1004.07 77.648C1004.42 78.6187 1005.15 79.312 1006.26 79.728V92H982.963C982.477 89.8507 982.131 87.8053 981.923 85.864C981.784 83.8533 981.715 81.5307 981.715 78.896V76.296V75.36V74.528C981.715 74.1813 981.715 73.8693 981.715 73.592C981.784 73.2453 981.819 72.968 981.819 72.76C981.819 70.6107 981.576 69.016 981.091 67.976C980.675 66.8667 979.912 66.0693 978.803 65.584C978.317 65.3067 977.797 65.168 977.243 65.168C976.688 65.0987 975.717 65.064 974.331 65.064V72.136V73.176C974.331 75.3253 974.469 76.816 974.747 77.648C975.093 78.4107 975.856 79.104 977.035 79.728V92H949.994V79.728ZM974.331 51.232H975.475H977.035C979.184 51.1627 980.64 50.608 981.403 49.568C982.235 48.528 982.651 46.6907 982.651 44.056C982.651 41.2827 982.165 39.4453 981.195 38.544C980.293 37.6427 978.387 37.192 975.475 37.192H974.331V51.232ZM1012.76 79.728C1013.94 79.1733 1014.7 78.48 1015.05 77.648C1015.39 76.816 1015.57 75.3253 1015.57 73.176V72.136V42.6V41.56C1015.57 39.3413 1015.39 37.816 1015.05 36.984C1014.7 36.152 1013.94 35.4587 1012.76 34.904V22.632H1041.78H1044.06C1048.64 22.7013 1052.21 23.1173 1054.78 23.88C1057.34 24.5733 1059.56 25.856 1061.43 27.728C1064.97 31.1947 1066.74 36.152 1066.74 42.6V45.304V70.264V72.552C1066.6 79.5547 1064.45 84.72 1060.29 88.048C1058.49 89.4347 1056.34 90.44 1053.84 91.064C1051.41 91.688 1048.15 92 1044.06 92H1041.78H1012.76V79.728ZM1037.72 76.816H1038.86C1040.25 76.816 1041.36 76.7467 1042.19 76.608C1043.09 76.4 1043.75 76.0187 1044.17 75.464C1044.65 74.9093 1044.97 74.1467 1045.1 73.176C1045.31 72.136 1045.42 70.8187 1045.42 69.224V44.888V43.224C1045.42 41.144 1044.97 39.688 1044.06 38.856C1043.23 38.024 1041.71 37.608 1039.49 37.608H1038.14H1037.82H1037.1V76.816H1037.72Z" fill="#F4B23E"/>
</svg>
